<svg width="17" height="16" viewBox="0 0 17 16" fill="none" xmlns="http://www.w3.org/2000/svg">
<path d="M7.80446 13.1889L7.80446 13.1889L4.0926 14.6983L4.38108 10.7016C4.41002 10.3008 4.28124 9.90444 4.02221 9.59713L1.43966 6.53337L5.32982 5.57271C5.72002 5.47636 6.05715 5.23141 6.26937 4.89009L8.38513 1.48719L10.5009 4.89009L11.3736 4.34745L10.5009 4.89009C10.7131 5.23141 11.0502 5.47636 11.4405 5.57271L15.3306 6.53337L12.7481 9.59713C12.489 9.90444 12.3602 10.3008 12.3892 10.7016L12.6777 14.6983L8.96581 13.1889L8.57869 14.1409L8.96581 13.1889C8.59349 13.0375 8.17677 13.0375 7.80446 13.1889ZM0.637314 6.7315L0.637944 6.73135C0.637734 6.7314 0.637524 6.73145 0.637314 6.7315L0.514123 6.23264L0.637314 6.7315Z" stroke="url(#paint0_linear_0_1318)" stroke-width="2"/>
<defs>
<linearGradient id="paint0_linear_0_1318" x1="8.38513" y1="-0.45915" x2="8.38513" y2="18.0393" gradientUnits="userSpaceOnUse">
<stop stop-color="#605DEC"/>
<stop offset="1" stop-color="#2A26D9"/>
</linearGradient>
</defs>
</svg>
