<svg width="17" height="16" viewBox="0 0 17 16" fill="none" xmlns="http://www.w3.org/2000/svg">
<path d="M7.94882 0.242701C8.14988 -0.0806704 8.62052 -0.0806712 8.82157 0.2427L11.3737 4.34745C11.4445 4.46122 11.5568 4.54287 11.6869 4.57499L16.3794 5.73378C16.7491 5.82507 16.8945 6.27268 16.6491 6.56382L13.5339 10.2595C13.4476 10.3619 13.4046 10.494 13.4143 10.6277L13.7623 15.4486C13.7897 15.8284 13.4089 16.105 13.0562 15.9616L8.57876 14.1409C8.45465 14.0904 8.31574 14.0904 8.19164 14.1409L3.7142 15.9616C3.36147 16.105 2.98072 15.8284 3.00813 15.4486L3.35612 10.6277C3.36577 10.494 3.32284 10.3619 3.23649 10.2595L0.121299 6.56382C-0.124115 6.27268 0.0213204 5.82507 0.390995 5.73378L5.0835 4.57499C5.21356 4.54287 5.32594 4.46122 5.39668 4.34745L7.94882 0.242701Z" fill="url(#paint0_linear_0_1042)"/>
<defs>
<linearGradient id="paint0_linear_0_1042" x1="8.3852" y1="-0.45915" x2="8.3852" y2="18.0393" gradientUnits="userSpaceOnUse">
<stop stop-color="#605DEC"/>
<stop offset="1" stop-color="#2A26D9"/>
</linearGradient>
</defs>
</svg>
