<svg width="17" height="16" viewBox="0 0 17 16" fill="none" xmlns="http://www.w3.org/2000/svg">
<path d="M7.80453 13.1889L7.80452 13.1889L4.09266 14.6983L4.38115 10.7016C4.41008 10.3008 4.28131 9.90444 4.02227 9.59713L1.43972 6.53337L5.32988 5.57271C5.72008 5.47636 6.05722 5.23141 6.26944 4.89009L8.3852 1.48719L10.501 4.89009L11.3737 4.34745L10.501 4.89009C10.7132 5.23141 11.0503 5.47636 11.4405 5.57271L15.3307 6.53337L12.7481 9.59713C12.4891 9.90444 12.3603 10.3008 12.3892 10.7016L12.6777 14.6983L8.96588 13.1889L8.57876 14.1409L8.96587 13.1889C8.59356 13.0375 8.17684 13.0375 7.80453 13.1889ZM0.637377 6.7315L0.638007 6.73135C0.637797 6.7314 0.637587 6.73145 0.637377 6.7315L0.514186 6.23264L0.637377 6.7315Z" stroke="url(#paint0_linear_0_1046)" stroke-width="2"/>
<defs>
<linearGradient id="paint0_linear_0_1046" x1="8.3852" y1="-0.45915" x2="8.3852" y2="18.0393" gradientUnits="userSpaceOnUse">
<stop stop-color="#605DEC"/>
<stop offset="1" stop-color="#2A26D9"/>
</linearGradient>
</defs>
</svg>
