<svg width="76" height="24" viewBox="0 0 76 24" fill="none" xmlns="http://www.w3.org/2000/svg">
<path d="M32.9339 23.6535H26.7773L30.6281 0.420898H36.7843L32.9339 23.6535Z" fill="white"/>
<path d="M55.2511 0.989106C54.0368 0.519026 52.1107 0 49.7292 0C43.6494 0 39.3681 3.16343 39.3418 7.68618C39.2913 11.0231 42.4071 12.8764 44.7375 13.9891C47.1194 15.126 47.9291 15.8681 47.9291 16.8815C47.9048 18.4379 46.0044 19.1553 44.2318 19.1553C41.7739 19.1553 40.4569 18.7854 38.4554 17.9195L37.6447 17.5483L36.7832 22.7635C38.2271 23.4054 40.8874 23.975 43.6494 24C50.1093 24 54.3149 20.8855 54.3647 16.0658C54.3893 13.4211 52.744 11.3946 49.1969 9.73863C47.0436 8.67561 45.7249 7.95883 45.7249 6.87118C45.7502 5.8824 46.8403 4.86964 49.271 4.86964C51.2725 4.82004 52.743 5.28946 53.857 5.75921L54.4138 6.00591L55.2511 0.989106Z" fill="white"/>
<path d="M63.4334 15.423C63.9404 14.0884 65.8913 8.92274 65.8913 8.92274C65.8658 8.97234 66.3973 7.56341 66.7014 6.69848L67.1316 8.70034C67.1316 8.70034 68.2975 14.2615 68.5506 15.423C67.5885 15.423 64.6494 15.423 63.4334 15.423ZM71.0328 0.420898H66.2708C64.8022 0.420898 63.6865 0.840718 63.0529 2.34852L53.9082 23.6532H60.3681C60.3681 23.6532 61.4316 20.7858 61.6602 20.1682C62.3689 20.1682 68.653 20.1682 69.5647 20.1682C69.7414 20.9838 70.2993 23.6532 70.2993 23.6532H75.9996L71.0328 0.420898Z" fill="white"/>
<path d="M21.6335 0.420898L15.6043 16.2633L14.9454 13.0503C13.8307 9.34288 10.3348 5.31485 6.43359 3.312L11.9562 23.6289H18.4666L28.1436 0.420898H21.6335Z" fill="white"/>
<path d="M10.0066 0.420898H0.101335L0 0.890321C7.72672 2.81827 12.844 7.46552 14.9464 13.0513L12.7931 2.37381C12.4386 0.889992 11.3492 0.469845 10.0066 0.420898Z" fill="white"/>
</svg>
