<svg width="17" height="16" viewBox="0 0 17 16" fill="none" xmlns="http://www.w3.org/2000/svg">
<path d="M7.94888 0.242701C8.14994 -0.0806704 8.62058 -0.0806712 8.82164 0.2427L11.3738 4.34745C11.4445 4.46122 11.5569 4.54287 11.687 4.57499L16.3795 5.73378C16.7491 5.82507 16.8946 6.27268 16.6492 6.56382L13.534 10.2595C13.4476 10.3619 13.4047 10.494 13.4143 10.6277L13.7623 15.4486C13.7897 15.8284 13.409 16.105 13.0563 15.9616L8.57882 14.1409C8.45471 14.0904 8.31581 14.0904 8.1917 14.1409L3.71427 15.9616C3.36154 16.105 2.98078 15.8284 3.00819 15.4486L3.35618 10.6277C3.36583 10.494 3.3229 10.3619 3.23656 10.2595L0.121362 6.56382C-0.124052 6.27268 0.0213831 5.82507 0.391057 5.73378L5.08356 4.57499C5.21363 4.54287 5.32601 4.46122 5.39675 4.34745L7.94888 0.242701Z" fill="url(#paint0_linear_0_821)"/>
<defs>
<linearGradient id="paint0_linear_0_821" x1="8.38526" y1="-0.45915" x2="8.38526" y2="18.0393" gradientUnits="userSpaceOnUse">
<stop stop-color="#605DEC"/>
<stop offset="1" stop-color="#2A26D9"/>
</linearGradient>
</defs>
</svg>
