<svg width="17" height="16" viewBox="0 0 17 16" fill="none" xmlns="http://www.w3.org/2000/svg">
<path d="M7.94876 0.242701C8.14981 -0.0806704 8.62045 -0.0806712 8.82151 0.2427L11.3736 4.34745C11.4444 4.46122 11.5568 4.54287 11.6868 4.57499L16.3793 5.73378C16.749 5.82507 16.8944 6.27268 16.649 6.56382L13.5338 10.2595C13.4475 10.3619 13.4046 10.494 13.4142 10.6277L13.7622 15.4486C13.7896 15.8284 13.4089 16.105 13.0561 15.9616L8.57869 14.1409C8.45459 14.0904 8.31568 14.0904 8.19157 14.1409L3.71414 15.9616C3.36141 16.105 2.98065 15.8284 3.00807 15.4486L3.35606 10.6277C3.3657 10.494 3.32278 10.3619 3.23643 10.2595L0.121237 6.56382C-0.124178 6.27268 0.0212577 5.82507 0.390932 5.73378L5.08343 4.57499C5.2135 4.54287 5.32588 4.46122 5.39662 4.34745L7.94876 0.242701Z" fill="url(#paint0_linear_0_1314)"/>
<defs>
<linearGradient id="paint0_linear_0_1314" x1="8.38513" y1="-0.45915" x2="8.38513" y2="18.0393" gradientUnits="userSpaceOnUse">
<stop stop-color="#605DEC"/>
<stop offset="1" stop-color="#2A26D9"/>
</linearGradient>
</defs>
</svg>
