<svg width="17" height="16" viewBox="0 0 17 16" fill="none" xmlns="http://www.w3.org/2000/svg">
<path d="M7.94885 0.242701C8.1499 -0.0806704 8.62054 -0.0806712 8.8216 0.2427L11.3737 4.34745C11.4445 4.46122 11.5569 4.54287 11.6869 4.57499L16.3794 5.73378C16.7491 5.82507 16.8945 6.27268 16.6491 6.56382L13.5339 10.2595C13.4476 10.3619 13.4047 10.494 13.4143 10.6277L13.7623 15.4486C13.7897 15.8284 13.4089 16.105 13.0562 15.9616L8.57878 14.1409C8.45468 14.0904 8.31577 14.0904 8.19166 14.1409L3.71423 15.9616C3.3615 16.105 2.98074 15.8284 3.00816 15.4486L3.35615 10.6277C3.36579 10.494 3.32287 10.3619 3.23652 10.2595L0.121327 6.56382C-0.124087 6.27268 0.0213478 5.82507 0.391022 5.73378L5.08352 4.57499C5.21359 4.54287 5.32597 4.46122 5.39671 4.34745L7.94885 0.242701Z" fill="url(#paint0_linear_0_774)"/>
<defs>
<linearGradient id="paint0_linear_0_774" x1="8.38522" y1="-0.45915" x2="8.38522" y2="18.0393" gradientUnits="userSpaceOnUse">
<stop stop-color="#605DEC"/>
<stop offset="1" stop-color="#2A26D9"/>
</linearGradient>
</defs>
</svg>
