<svg width="18" height="18" viewBox="0 0 18 18" fill="none" xmlns="http://www.w3.org/2000/svg">
<g clip-path="url(#clip0_0_3196)">
<path d="M16.1181 9.13689C16.1181 8.53945 16.0696 8.10348 15.9647 7.65137H9.14258V10.3479H13.147C13.0663 11.018 12.6304 12.0272 11.6615 12.7054L11.6479 12.7956L13.805 14.4667L13.9544 14.4816C15.3269 13.214 16.1181 11.349 16.1181 9.13689Z" fill="#4285F4"/>
<path d="M9.14154 16.2412C11.1034 16.2412 12.7504 15.5953 13.9534 14.4812L11.6605 12.705C11.0469 13.1329 10.2234 13.4316 9.14154 13.4316C7.22005 13.4316 5.58921 12.1641 5.00785 10.4121L4.92264 10.4193L2.67972 12.1552L2.65039 12.2367C3.84526 14.6103 6.29963 16.2412 9.14154 16.2412Z" fill="#34A853"/>
<path d="M5.00751 10.4124C4.85411 9.9603 4.76534 9.47585 4.76534 8.97531C4.76534 8.47472 4.85411 7.99033 4.99944 7.53821L4.99537 7.44192L2.72435 5.67822L2.65004 5.71357C2.15758 6.69855 1.875 7.80465 1.875 8.97531C1.875 10.146 2.15758 11.252 2.65004 12.237L5.00751 10.4124Z" fill="#FBBC05"/>
<path d="M9.14154 4.51856C10.506 4.51856 11.4263 5.10793 11.9511 5.60045L14.0018 3.59819C12.7424 2.42753 11.1034 1.70898 9.14154 1.70898C6.29963 1.70898 3.84526 3.33983 2.65039 5.71343L4.99978 7.53808C5.58921 5.78612 7.22005 4.51856 9.14154 4.51856Z" fill="#EB4335"/>
</g>
<defs>
<clipPath id="clip0_0_3196">
<rect width="14.25" height="14.5825" fill="white" transform="translate(1.875 1.70898)"/>
</clipPath>
</defs>
</svg>
