<svg width="18" height="18" viewBox="0 0 18 18" fill="none" xmlns="http://www.w3.org/2000/svg">
<path fill-rule="evenodd" clip-rule="evenodd" d="M2.0966 13.4188C2.0465 13.7233 2.28141 14 2.58996 14H4.76066L4.59904 15.0173C4.50257 15.6246 4.97179 16.1742 5.58666 16.1742H7.35338C7.84501 16.1742 8.26372 15.8169 8.34096 15.3313L8.84277 12.1771H11.1111C12.5484 12.1771 13.7275 11.831 14.5677 11.0617C15.4079 10.2926 15.8051 9.23895 15.8051 7.96759C15.8051 6.8936 15.4545 6.00617 14.7003 5.38702C14.4853 5.20754 14.2457 5.05744 13.9833 4.93481C13.9033 4.05176 13.5507 3.36285 12.9254 2.86809C12.2083 2.28936 11.1621 2 9.78675 2H4.40025C4.15545 2 3.94664 2.17725 3.90689 2.41881L2.0966 13.4188ZM6.48708 9.50638H9.11671C10.7036 9.50638 11.9144 9.13759 12.749 8.4C13.4199 7.8071 13.8212 7.03091 13.9528 6.07141C13.9902 6.09869 14.0261 6.12682 14.0608 6.15577L14.0608 6.15579L14.0645 6.15887C14.5405 6.54904 14.8051 7.12463 14.8051 7.96759C14.8051 9.0178 14.4856 9.78109 13.8925 10.3241C13.2994 10.8671 12.3991 11.1771 11.1111 11.1771H8.84277C8.35114 11.1771 7.93244 11.5344 7.85519 12.02L7.35338 15.1742H5.58666L6.48708 9.50638Z" fill="#605DEC"/>
</svg>
